<svg preserveAspectRatio="none" overflow="visible" style="display: block;" width="18" height="18" viewBox="0 0 18 18" fill="none" xmlns="http://www.w3.org/2000/svg">
<g id="Icon/pause">
<g id="Glyph">
<path d="M13.5 2.25H11.25C10.8358 2.25 10.5 2.58579 10.5 3V15C10.5 15.4142 10.8358 15.75 11.25 15.75H13.5C13.9142 15.75 14.25 15.4142 14.25 15V3C14.25 2.58579 13.9142 2.25 13.5 2.25Z" stroke="white" stroke-width="1.6" stroke-linecap="round" stroke-linejoin="round"/>
<path d="M6.75001 2.25H4.50001C4.0858 2.25 3.75001 2.58579 3.75001 3V15C3.75001 15.4142 4.0858 15.75 4.50001 15.75H6.75001C7.16423 15.75 7.50001 15.4142 7.50001 15V3C7.50001 2.58579 7.16423 2.25 6.75001 2.25Z" stroke="white" stroke-width="1.6" stroke-linecap="round" stroke-linejoin="round"/>
</g>
</g>
</svg>
