<svg preserveAspectRatio="none" overflow="visible" style="display: block;" width="16.1" height="16.1" viewBox="0 0 16.1 16.1" fill="none" xmlns="http://www.w3.org/2000/svg">
<g id="Icon">
<path id="Glyph" d="M6.70832 1.34167V2.68334M9.39168 1.34167V2.68334M10.7333 5.36667C10.9113 5.36667 11.0819 5.43735 11.2077 5.56315C11.3335 5.68896 11.4042 5.85959 11.4042 6.0375V10.7333M10.7333 5.36667H2.68333C2.50542 5.36667 2.33479 5.43735 2.20898 5.56315C2.08318 5.68896 2.0125 5.85959 2.0125 6.0375V11.4042C2.0125 12.1158 2.29521 12.7984 2.79843 13.3016C3.30165 13.8048 3.98417 14.0875 4.69583 14.0875H8.72083C9.4325 14.0875 10.115 13.8048 10.6182 13.3016C11.1215 12.7984 11.4042 12.1158 11.4042 11.4042V10.7333M10.7333 5.36667H12.075C12.7867 5.36667 13.4692 5.64938 13.9724 6.1526C14.4756 6.65582 14.7583 7.33834 14.7583 8.05C14.7583 8.76167 14.4756 9.44418 13.9724 9.94741C13.4692 10.4506 12.7867 10.7333 12.075 10.7333H11.4042M4.025 1.34167V2.68334" stroke="white" stroke-width="1.53333" stroke-linecap="round" stroke-linejoin="round"/>
</g>
</svg>
